# xmcd
# Copyright (C) 1995-1998 Ti Kan
#
# Track frame offsets:
#       150
#       19838
#       40722
#       59015
#       84456
#       105027
#       124770
#       144049
#       164567
#       182924
#       204776
#
# Disc length: 2742 seconds
#
# Revision: 0
# Processed by: cddbd v1.4b42PL1 Copyright (c) Steve Scherf et al.
# Submitted via: CD-Transfer v1.0
#
DISCID=860ab40b
DTITLE=The Park - Spiders Of Addiction
DYEAR=2001
DGENRE=
TTITLE0=Underground
TTITLE1=Spiders Of Addiction
TTITLE2=First Time
TTITLE3=Liston In L. A.
TTITLE4=Freestyle Babe
TTITLE5=Need U
TTITLE6=September
TTITLE7=Wrong World
TTITLE8=Brighter Days
TTITLE9=On And Over
TTITLE10=Outro
EXTD=
EXTT0=
EXTT1=
EXTT2=
EXTT3=
EXTT4=
EXTT5=
EXTT6=
EXTT7=
EXTT8=
EXTT9=
EXTT10=
PLAYORDER=
